<svg width="153.8" height="57.6" viewBox="16.53 30.14 153.8 57.6" fill="none" xmlns="http://www.w3.org/2000/svg">
<path d="M16.538 79.223H46.543V87.337H16.533L16.538 79.223Z" fill="#E30A17"/>
<path d="M16.533 54.959H42.133V62.596H16.533V54.959Z" fill="#E30A17"/>
<path d="M16.533 30.696H46.543V38.81H16.538L16.533 30.696Z" fill="#E30A17"/>
<path d="M76.7939 56.076H98.6709V67.611C98.6709 70.423 98.1089 73.048 96.9849 75.487C95.8609 77.927 94.3049 80.061 92.3159 81.891C90.3269 83.721 87.9919 85.153 85.3119 86.187C82.6309 87.221 79.7629 87.738 76.7079 87.738C74.2869 87.738 72.0519 87.432 70.0069 86.823C67.9599 86.214 66.1289 85.431 64.5159 84.476C62.9009 83.521 61.5029 82.435 60.3219 81.214C59.1399 79.995 58.1739 78.775 57.4249 77.555C56.9059 76.707 56.4869 75.898 56.1709 75.129C55.8529 74.361 55.5789 73.339 55.3489 72.066C55.1179 70.793 54.9599 69.136 54.8729 67.094C54.7869 65.053 54.7429 62.334 54.7429 58.94C54.7429 55.547 54.7859 52.828 54.8729 50.786C54.9599 48.745 55.1179 47.087 55.3489 45.814C55.5789 44.541 55.8529 43.521 56.1709 42.751C56.4869 41.983 56.9059 41.174 57.4249 40.325C58.1729 39.106 59.1399 37.886 60.3219 36.666C61.5029 35.447 62.9009 34.359 64.5159 33.404C66.1289 32.449 67.9599 31.667 70.0069 31.057C72.0529 30.448 74.2869 30.142 76.7079 30.142C79.6479 30.142 82.3289 30.58 84.7499 31.455C87.1709 32.33 89.3179 33.537 91.1919 35.075C93.0649 36.614 94.6069 38.39 95.8179 40.405C97.0289 42.421 97.8629 44.595 98.3259 46.928H88.4679C88.1219 45.814 87.5879 44.768 86.8679 43.786C86.1469 42.805 85.2819 41.944 84.2739 41.201C83.2649 40.459 82.1259 39.862 80.8579 39.411C79.5889 38.961 78.2059 38.735 76.7069 38.735C74.5159 38.735 72.6279 39.147 71.0429 39.968C69.4569 40.791 68.1749 41.758 67.1949 42.872C66.6179 43.562 66.1279 44.252 65.7249 44.94C65.3209 45.63 64.9899 46.531 64.7309 47.645C64.4719 48.759 64.2989 50.191 64.2119 51.941C64.1249 53.691 64.0819 56.026 64.0819 58.942C64.0819 61.859 64.1249 64.192 64.2119 65.943C64.2979 67.693 64.4709 69.125 64.7309 70.239C64.9899 71.353 65.3209 72.242 65.7249 72.904C66.1279 73.568 66.6179 74.27 67.1949 75.012C68.1749 76.126 69.4569 77.094 71.0429 77.916C72.6279 78.739 74.5149 79.149 76.7069 79.149C78.4929 79.149 80.1509 78.858 81.6789 78.274C83.2059 77.691 84.5329 76.869 85.6569 75.808C86.7809 74.748 87.6739 73.475 88.3379 71.99C88.9999 70.506 89.3319 68.887 89.3319 67.137V64.19H76.7939V56.076Z" fill="#E30A17"/>
<path d="M129.446 79.09C127.801 78.957 126.345 78.568 125.083 77.913C123.497 77.091 122.214 76.123 121.235 75.009C120.658 74.267 120.168 73.565 119.765 72.901C119.361 72.239 119.03 71.35 118.77 70.236C118.511 69.122 118.338 67.69 118.251 65.94C118.165 64.19 118.121 61.857 118.121 58.939C118.121 56.023 118.164 53.689 118.251 51.938C118.337 50.188 118.51 48.756 118.77 47.642C119.029 46.528 119.36 45.627 119.765 44.937C120.168 44.248 120.658 43.558 121.235 42.869C122.215 41.755 123.497 40.788 125.083 39.965C126.344 39.311 127.8 38.922 129.446 38.788V30.174C127.521 30.265 125.719 30.557 124.046 31.055C121.999 31.665 120.168 32.447 118.555 33.402C116.94 34.357 115.542 35.444 114.361 36.664C113.179 37.885 112.213 39.104 111.464 40.323C110.945 41.172 110.526 41.981 110.21 42.749C109.893 43.518 109.618 44.539 109.388 45.812C109.157 47.085 108.999 48.743 108.913 50.784C108.826 52.826 108.783 55.545 108.783 58.938C108.783 62.333 108.826 65.051 108.913 67.092C108.999 69.134 109.157 70.791 109.388 72.064C109.618 73.337 109.892 74.358 110.21 75.127C110.526 75.896 110.945 76.706 111.464 77.553C112.212 78.774 113.178 79.993 114.361 81.212C115.542 82.433 116.94 83.519 118.555 84.474C120.168 85.429 121.999 86.212 124.046 86.821C125.719 87.319 127.521 87.611 129.446 87.702V79.09Z" fill="#E30A17"/>
<path fill-rule="evenodd" clip-rule="evenodd" d="M148.587 69.459L152.052 72.914L155.517 69.459H148.587ZM129.859 68.187C129.948 68.187 130.034 68.198 130.116 68.22C130.109 68.182 130.105 68.143 130.105 68.103C130.105 67.751 130.391 67.465 130.743 67.465C131.095 67.465 131.381 67.751 131.381 68.103C131.381 68.286 131.304 68.452 131.18 68.568C131.189 68.575 131.199 68.582 131.208 68.589C131.238 68.584 131.268 68.581 131.3 68.581C131.493 68.581 131.662 68.679 131.762 68.828H132.062C130.569 66.486 129.716 63.777 129.716 60.891C129.716 59.753 129.849 58.642 130.101 57.571L129.737 57.36C129.576 57.439 129.38 57.439 129.214 57.342C129.187 57.326 129.162 57.309 129.139 57.29C129.128 57.292 129.116 57.293 129.105 57.294C129.154 57.457 129.138 57.639 129.046 57.797C128.87 58.102 128.479 58.206 128.175 58.029C127.87 57.853 127.766 57.462 127.943 57.158C128.041 56.988 128.206 56.881 128.386 56.849C128.349 56.754 128.334 56.652 128.341 56.55L127.986 56.344C127.798 56.454 127.558 56.462 127.356 56.346C127.133 56.217 127.02 55.971 127.048 55.731C126.864 55.862 126.612 55.882 126.404 55.761C126.286 55.693 126.201 55.59 126.152 55.474L125.159 54.352L126.627 54.655C126.752 54.639 126.884 54.662 127.002 54.73C127.211 54.851 127.319 55.079 127.297 55.304C127.491 55.159 127.761 55.135 127.984 55.264C128.186 55.381 128.298 55.593 128.296 55.811L128.651 56.017C128.736 55.96 128.833 55.923 128.933 55.907C128.871 55.736 128.882 55.539 128.98 55.37C129.156 55.065 129.547 54.961 129.851 55.138C130.156 55.314 130.26 55.705 130.083 56.009C129.991 56.168 129.841 56.272 129.676 56.31C129.681 56.32 129.685 56.331 129.689 56.342C129.717 56.353 129.745 56.366 129.772 56.381C129.939 56.477 130.036 56.647 130.048 56.826L130.263 56.951C130.797 55.06 131.707 53.302 132.918 51.744L132.686 51.54C132.513 51.586 132.321 51.548 132.176 51.421C132.153 51.4 132.131 51.378 132.112 51.355C132.1 51.354 132.089 51.354 132.078 51.352C132.094 51.521 132.043 51.697 131.922 51.834C131.69 52.098 131.287 52.124 131.022 51.892C130.758 51.66 130.732 51.257 130.964 50.992C131.094 50.845 131.276 50.771 131.458 50.776C131.441 50.676 131.445 50.573 131.472 50.474L131.163 50.203C130.957 50.274 130.72 50.236 130.545 50.082C130.352 49.912 130.288 49.649 130.363 49.418C130.157 49.511 129.906 49.481 129.725 49.322C129.623 49.232 129.559 49.115 129.534 48.991L128.778 47.697L130.159 48.28C130.285 48.289 130.41 48.337 130.512 48.427C130.693 48.586 130.754 48.831 130.689 49.047C130.908 48.943 131.177 48.972 131.37 49.142C131.545 49.296 131.614 49.526 131.569 49.739L131.878 50.01C131.973 49.971 132.075 49.953 132.176 49.958C132.148 49.778 132.198 49.588 132.327 49.44C132.559 49.176 132.962 49.15 133.227 49.382C133.492 49.614 133.517 50.017 133.285 50.282C133.164 50.42 132.997 50.493 132.827 50.498C132.83 50.509 132.832 50.521 132.834 50.532C132.86 50.548 132.884 50.566 132.908 50.587C133.053 50.714 133.115 50.9 133.092 51.077L133.305 51.264C134.568 49.759 136.119 48.459 137.885 47.427L137.714 47.147C137.535 47.139 137.363 47.046 137.263 46.881C137.247 46.854 137.233 46.827 137.222 46.799C137.211 46.795 137.2 46.791 137.19 46.786C137.155 46.952 137.054 47.105 136.898 47.2C136.597 47.383 136.205 47.288 136.022 46.988C135.839 46.687 135.934 46.295 136.234 46.112C136.402 46.01 136.598 45.994 136.77 46.052C136.783 45.951 136.818 45.854 136.873 45.767L136.659 45.416C136.442 45.423 136.227 45.316 136.105 45.116C135.971 44.896 135.989 44.626 136.129 44.428C135.904 44.455 135.674 44.352 135.549 44.147C135.478 44.031 135.452 43.9 135.465 43.774L135.129 42.314L136.273 43.282C136.391 43.328 136.495 43.411 136.566 43.527C136.691 43.733 136.677 43.985 136.55 44.172C136.79 44.138 137.038 44.246 137.172 44.466C137.293 44.665 137.29 44.905 137.185 45.095L137.399 45.446C137.501 45.437 137.604 45.45 137.699 45.485C137.726 45.305 137.83 45.138 137.997 45.036C138.298 44.853 138.69 44.948 138.873 45.248C139.056 45.549 138.961 45.941 138.661 46.124C138.504 46.219 138.323 46.239 138.159 46.194C138.158 46.206 138.157 46.217 138.156 46.228C138.176 46.251 138.194 46.276 138.21 46.302C138.31 46.466 138.315 46.662 138.24 46.825L138.422 47.123C139.497 46.542 140.646 46.059 141.853 45.686L141.732 45.212C141.605 45.165 141.488 45.075 141.397 44.952C141.326 45.057 141.223 45.135 141.098 45.167C140.797 45.244 140.482 45.027 140.393 44.682C140.304 44.337 140.477 43.995 140.778 43.918C140.954 43.873 141.136 43.929 141.273 44.052C141.302 43.983 141.341 43.92 141.387 43.866L141.277 43.437C141.092 43.389 140.946 43.262 140.901 43.086C140.856 42.911 140.924 42.729 141.062 42.598L141.031 42.476C141.008 42.465 140.987 42.452 140.966 42.437L140.841 42.631L140.313 42.766L140.659 43.343L140.512 43.487L139.897 43.047L139.74 42.433L140.15 41.995L140.734 41.846C140.749 41.774 140.779 41.706 140.82 41.647L140.384 39.943C140.362 39.856 140.495 39.746 140.682 39.698C140.869 39.65 141.039 39.682 141.061 39.769L141.504 41.498C141.555 41.528 141.602 41.567 141.642 41.613L142.225 41.464L142.795 41.651L142.952 42.265L142.624 42.947L142.426 42.892L142.452 42.22L141.924 42.355L141.723 42.246C141.717 42.257 141.711 42.268 141.705 42.279L141.746 42.441C141.916 42.495 142.049 42.617 142.092 42.783C142.134 42.949 142.077 43.12 141.953 43.249L142.081 43.748C142.122 43.77 142.162 43.797 142.199 43.828C142.263 43.646 142.407 43.502 142.598 43.453C142.914 43.372 143.241 43.582 143.328 43.922C143.415 44.262 143.229 44.603 142.913 44.684C142.776 44.719 142.636 44.699 142.515 44.638C142.501 44.767 142.46 44.886 142.396 44.984L142.526 45.492C144.18 45.046 145.934 44.806 147.75 44.806H147.4V44.307C147.289 44.23 147.198 44.113 147.14 43.972C147.045 44.056 146.926 44.106 146.797 44.106C146.486 44.106 146.235 43.817 146.235 43.461C146.235 43.105 146.487 42.816 146.797 42.816C146.979 42.816 147.141 42.915 147.244 43.069C147.289 43.009 147.342 42.958 147.401 42.917V42.474C147.234 42.382 147.124 42.222 147.124 42.041C147.124 41.86 147.234 41.7 147.401 41.608V41.482C147.382 41.465 147.364 41.447 147.347 41.428L147.178 41.585H146.633L146.825 42.229L146.647 42.332L146.16 41.753V41.119L146.666 40.797H147.269C147.302 40.731 147.347 40.673 147.401 40.626V38.867C147.401 38.777 147.558 38.704 147.751 38.704C147.944 38.704 148.101 38.777 148.101 38.867V40.651C148.143 40.693 148.179 40.742 148.206 40.797H148.807L149.313 41.119V41.753L148.826 42.332L148.648 42.229L148.84 41.585H148.295L148.127 41.429C148.119 41.438 148.11 41.448 148.101 41.456V41.623C148.253 41.717 148.351 41.869 148.351 42.04C148.351 42.211 148.253 42.363 148.101 42.457V42.972C148.135 43.004 148.167 43.04 148.196 43.079C148.303 42.919 148.478 42.815 148.676 42.815C149.002 42.815 149.267 43.1 149.267 43.451C149.267 43.802 149.002 44.087 148.676 44.087C148.534 44.087 148.404 44.033 148.302 43.944C148.257 44.065 148.187 44.17 148.101 44.249V44.804H147.751C149.456 44.804 151.105 45.015 152.669 45.41L152.784 44.95C152.695 44.848 152.635 44.713 152.613 44.562C152.5 44.62 152.373 44.64 152.248 44.609C151.947 44.534 151.773 44.192 151.859 43.847C151.945 43.502 152.26 43.283 152.561 43.358C152.738 43.402 152.87 43.538 152.933 43.712C152.992 43.665 153.055 43.628 153.122 43.603L153.23 43.173C153.09 43.043 153.022 42.861 153.066 42.686C153.11 42.51 153.256 42.382 153.44 42.333L153.471 42.211C153.456 42.19 153.443 42.168 153.432 42.146L153.23 42.257L152.701 42.125L152.731 42.797L152.533 42.853L152.202 42.173L152.356 41.558L152.925 41.368L153.51 41.514C153.558 41.458 153.616 41.412 153.68 41.38L154.107 39.674C154.129 39.587 154.299 39.554 154.486 39.601C154.673 39.648 154.807 39.757 154.786 39.844L154.353 41.575C154.384 41.626 154.406 41.682 154.419 41.742L155.002 41.888L155.414 42.323L155.26 42.938L154.647 43.382L154.499 43.239L154.842 42.661L154.313 42.529L154.188 42.337C154.178 42.344 154.167 42.351 154.157 42.357L154.116 42.519C154.24 42.647 154.299 42.818 154.257 42.984C154.215 43.15 154.083 43.273 153.913 43.328L153.788 43.828C153.814 43.867 153.836 43.91 153.854 43.955C153.997 43.826 154.192 43.767 154.384 43.815C154.701 43.894 154.888 44.235 154.803 44.575C154.718 44.915 154.392 45.127 154.075 45.048C153.937 45.014 153.824 44.93 153.747 44.818C153.674 44.925 153.581 45.01 153.478 45.065L153.346 45.593C154.698 45.986 155.98 46.518 157.171 47.17L157.383 46.822C157.308 46.659 157.312 46.464 157.413 46.299C157.429 46.272 157.447 46.248 157.467 46.225C157.466 46.214 157.464 46.202 157.464 46.191C157.3 46.236 157.119 46.216 156.962 46.121C156.661 45.938 156.566 45.545 156.75 45.245C156.933 44.944 157.326 44.849 157.626 45.033C157.794 45.135 157.897 45.302 157.925 45.482C158.021 45.448 158.123 45.434 158.225 45.443L158.439 45.092C158.333 44.902 158.33 44.662 158.452 44.463C158.586 44.243 158.834 44.135 159.074 44.169C158.947 43.982 158.933 43.73 159.058 43.524C159.129 43.408 159.233 43.324 159.351 43.279L160.495 42.311L160.159 43.771C160.172 43.897 160.146 44.028 160.075 44.144C159.95 44.35 159.719 44.452 159.495 44.425C159.635 44.623 159.653 44.893 159.519 45.113C159.398 45.312 159.183 45.419 158.965 45.413L158.751 45.764C158.806 45.851 158.841 45.948 158.854 46.049C159.027 45.991 159.223 46.006 159.39 46.109C159.691 46.292 159.786 46.685 159.602 46.985C159.419 47.286 159.026 47.381 158.726 47.197C158.569 47.102 158.469 46.949 158.434 46.783C158.423 46.787 158.413 46.792 158.402 46.796C158.391 46.824 158.377 46.851 158.361 46.878C158.261 47.042 158.089 47.136 157.91 47.144L157.708 47.476C159.431 48.496 160.947 49.773 162.186 51.245L162.38 51.074C162.357 50.896 162.419 50.711 162.564 50.584C162.587 50.563 162.612 50.545 162.638 50.529C162.64 50.518 162.642 50.506 162.645 50.495C162.475 50.489 162.308 50.416 162.187 50.279C161.955 50.015 161.981 49.612 162.245 49.379C162.509 49.146 162.913 49.173 163.145 49.437C163.275 49.584 163.324 49.775 163.296 49.955C163.397 49.951 163.499 49.968 163.594 50.007L163.903 49.736C163.859 49.523 163.927 49.293 164.102 49.139C164.295 48.969 164.565 48.94 164.783 49.044C164.718 48.827 164.779 48.583 164.96 48.424C165.062 48.334 165.187 48.286 165.313 48.277L166.693 47.694L165.937 48.988C165.912 49.112 165.848 49.229 165.746 49.319C165.565 49.478 165.315 49.508 165.108 49.415C165.183 49.645 165.12 49.909 164.926 50.079C164.751 50.233 164.514 50.271 164.308 50.2L163.999 50.471C164.026 50.57 164.03 50.673 164.013 50.773C164.195 50.769 164.378 50.842 164.507 50.989C164.739 51.253 164.714 51.657 164.449 51.889C164.185 52.121 163.782 52.095 163.549 51.831C163.428 51.693 163.377 51.518 163.393 51.349C163.382 51.35 163.37 51.351 163.359 51.352C163.34 51.375 163.319 51.398 163.295 51.418C163.15 51.545 162.958 51.583 162.785 51.537L162.572 51.725C163.786 53.285 164.7 55.044 165.236 56.938L165.433 56.824C165.445 56.645 165.542 56.475 165.709 56.379C165.736 56.363 165.764 56.35 165.792 56.34C165.796 56.329 165.801 56.319 165.805 56.308C165.639 56.269 165.49 56.165 165.398 56.007C165.222 55.702 165.326 55.312 165.63 55.136C165.935 54.96 166.325 55.064 166.501 55.368C166.599 55.538 166.611 55.734 166.548 55.905C166.648 55.921 166.745 55.958 166.83 56.015L167.185 55.809C167.183 55.591 167.295 55.379 167.497 55.262C167.72 55.133 167.99 55.157 168.184 55.302C168.162 55.077 168.27 54.849 168.479 54.728C168.597 54.66 168.728 54.636 168.854 54.653L170.322 54.35L169.329 55.472C169.281 55.589 169.195 55.691 169.077 55.759C168.868 55.88 168.617 55.86 168.433 55.729C168.462 55.97 168.348 56.215 168.125 56.344C167.923 56.461 167.683 56.452 167.495 56.342L167.14 56.548C167.147 56.65 167.131 56.753 167.095 56.847C167.274 56.878 167.439 56.986 167.538 57.156C167.714 57.461 167.61 57.851 167.306 58.027C167.001 58.203 166.611 58.099 166.435 57.795C166.343 57.636 166.327 57.454 166.376 57.292C166.364 57.291 166.353 57.289 166.342 57.288C166.319 57.307 166.294 57.325 166.267 57.34C166.1 57.436 165.904 57.437 165.744 57.358L165.399 57.558C165.653 58.633 165.787 59.747 165.787 60.889C165.787 63.787 164.927 66.505 163.423 68.854H163.734C163.834 68.705 164.003 68.607 164.196 68.607C164.227 68.607 164.258 68.61 164.288 68.615C164.297 68.608 164.306 68.601 164.316 68.594C164.192 68.478 164.115 68.312 164.115 68.129C164.115 67.777 164.401 67.491 164.753 67.491C165.105 67.491 165.391 67.777 165.391 68.129C165.391 68.158 165.389 68.186 165.385 68.213C165.461 68.195 165.54 68.185 165.621 68.185C165.931 68.185 166.208 68.324 166.394 68.543C166.613 68.574 166.796 68.718 166.881 68.915C166.975 68.709 167.183 68.566 167.424 68.566C167.56 68.566 167.686 68.612 167.786 68.689L169.208 69.162L167.786 69.635C167.686 69.712 167.56 69.758 167.424 69.758C167.183 69.758 166.975 69.615 166.881 69.409C166.814 69.565 166.685 69.688 166.525 69.748C168.333 72.579 165.982 75.437 163.179 76.029C161.492 76.386 158.393 76.523 158.393 76.523L154.979 76.667C154.979 76.667 154.773 76.955 154.485 77.085C154.197 77.215 153.688 77.25 153.688 77.25L152.174 78.826L150.392 79.066L150.344 77.674C150.351 76.886 149.453 77.009 149.453 77.009L148.927 76.996L147.744 77.379L147.742 77.378L147.74 77.379L146.557 76.996L146.031 77.009C146.031 77.009 145.133 76.886 145.14 77.674L145.092 79.066L143.31 78.826L141.796 77.25C141.796 77.25 141.287 77.215 140.999 77.085C140.711 76.955 140.505 76.667 140.505 76.667L137.091 76.523C137.091 76.523 133.992 76.386 132.305 76.029C129.494 75.435 127.131 72.55 128.977 69.721C128.817 69.661 128.687 69.538 128.62 69.382C128.526 69.588 128.319 69.731 128.078 69.731C127.942 69.731 127.816 69.685 127.716 69.608L126.294 69.135L127.716 68.662C127.816 68.585 127.942 68.539 128.078 68.539C128.319 68.539 128.527 68.682 128.62 68.888C128.706 68.688 128.893 68.542 129.116 68.514C129.296 68.314 129.563 68.187 129.859 68.187ZM130.105 70.187C130.026 70.207 129.944 70.217 129.859 70.217C129.761 70.217 129.666 70.203 129.577 70.177C129.461 71.659 129.683 75.071 134.193 75.071C134.193 75.071 136.497 75.14 137.087 74.618C137.087 74.618 137.206 74.425 137.747 74.275C135.632 73.015 133.832 71.366 132.476 69.444H131.761C131.661 69.593 131.492 69.691 131.299 69.691C131.268 69.691 131.237 69.688 131.207 69.683C131.198 69.69 131.189 69.697 131.179 69.704C131.303 69.82 131.38 69.986 131.38 70.169C131.38 70.521 131.094 70.807 130.742 70.807C130.396 70.808 130.114 70.531 130.105 70.187ZM139.578 74.096C140.018 74.093 140.992 74.156 141.629 74.723L143.142 73.297L139.578 69.938V74.096ZM142.964 75.366L144.797 75.38C144.797 75.38 144.88 75.425 145.115 75.254L143.538 73.681L142.097 75.118C142.383 75.208 142.672 75.29 142.964 75.366ZM145.614 74.881C145.773 74.822 146.025 74.77 146.422 74.77L146.663 74.767L146.664 74.742L147.497 74.752V69.746L143.933 73.297L145.614 74.881ZM148.092 74.751L148.807 74.743L148.808 74.768L149.049 74.771C149.522 74.771 149.79 74.845 149.939 74.916L151.655 73.298L148.091 69.747L148.092 74.751ZM150.427 75.302C150.609 75.417 150.675 75.381 150.675 75.381L152.753 75.365C153.003 75.302 153.249 75.234 153.49 75.162C153.494 75.154 153.499 75.147 153.504 75.139L153.479 75.105L152.052 73.683L150.427 75.302ZM153.905 74.671C154.61 74.096 155.671 74.086 156.013 74.099L156.011 74.072V69.939L152.447 73.298L153.905 74.671ZM157.742 74.281C158.27 74.43 158.387 74.619 158.387 74.619C158.977 75.14 161.281 75.072 161.281 75.072C165.791 75.072 166.013 71.659 165.897 70.178C165.807 70.204 165.713 70.218 165.615 70.218C165.536 70.218 165.459 70.209 165.385 70.192C165.385 70.194 165.385 70.197 165.385 70.199C165.385 70.551 165.099 70.837 164.747 70.837C164.395 70.837 164.109 70.551 164.109 70.199C164.109 70.016 164.186 69.85 164.31 69.734C164.301 69.727 164.291 69.72 164.282 69.713C164.252 69.718 164.222 69.721 164.19 69.721C163.997 69.721 163.828 69.623 163.728 69.474L163.001 69.472C161.646 71.385 159.85 73.025 157.742 74.281ZM159.451 71.801L159.476 71.818C160.261 71.098 160.948 70.305 161.537 69.458H157.102L159.451 71.801ZM159.019 72.22L158.987 72.182L156.607 69.939V73.761L156.609 73.867C157.488 73.385 158.292 72.832 159.019 72.22ZM136.559 72.223L136.552 72.229C137.306 72.818 138.12 73.349 138.984 73.813V69.939L136.559 72.223ZM136.087 71.852L136.096 71.845L138.49 69.458H133.807L133.78 69.46C134.454 70.328 135.228 71.129 136.087 71.852ZM133.382 68.883L133.352 68.884C133.103 68.53 132.869 68.166 132.653 67.793L132.673 67.772L135.023 65.428L138.488 68.883H133.382ZM132.372 67.284L132.397 67.266L134.627 65.044L130.881 61.7C131.084 63.739 131.392 65.425 132.372 67.284ZM151.656 48.537L148.092 52.088C148.092 50.028 148.198 47.714 148.094 45.765C148.315 45.768 148.529 45.773 148.736 45.78L148.786 45.83L151.656 48.537ZM149.79 45.898L149.723 45.837C151.208 45.957 152.369 46.219 153.611 46.602L153.519 46.69L152.052 48.153L149.791 45.899L149.79 45.898ZM147.498 45.764V45.792V52.088L143.934 48.537L146.799 45.837L146.826 45.812H146.818L146.837 45.787C147.061 45.774 147.281 45.766 147.498 45.764ZM145.777 45.92L145.819 45.87C144.574 46.007 143.273 46.273 142.037 46.652L142.048 46.666L143.538 48.152L145.777 45.92ZM141.416 46.91L141.394 46.889H141.395L141.375 46.869C140.746 47.087 140.141 47.336 139.576 47.613L139.577 47.662V47.738V51.896L143.141 48.537L141.416 46.91ZM138.984 47.994L138.983 47.916C138.101 48.39 137.27 48.934 136.502 49.538L136.528 49.581L138.983 51.895L138.984 47.994ZM136.066 49.96L136.034 49.922C135.165 50.659 134.384 51.478 133.707 52.364L133.765 52.375H138.489L136.066 49.96ZM133.285 52.943L133.345 52.951H138.489L135.024 56.406L132.654 54.043L132.653 54.046L132.612 54.009C132.821 53.645 133.046 53.289 133.285 52.943ZM132.379 54.55L132.337 54.514C131.361 56.389 131.059 58.089 130.874 60.141L134.627 56.79L132.379 54.55ZM158.959 49.679L159.077 49.56C158.334 48.927 157.51 48.356 156.605 47.86L156.606 48.021V48.034V51.897L158.959 49.679ZM159.53 49.962L159.479 50.005L157.101 52.376H161.607C161.016 51.509 160.324 50.699 159.53 49.962ZM156.012 47.709V47.551C155.455 47.277 154.87 47.03 154.256 46.814L154.169 46.914L152.448 48.536L156.012 51.895V47.718V47.709ZM147.003 69.459L143.538 72.914L140.073 69.459H147.003ZM148.587 61.205L152.052 64.66L155.517 61.205H148.587ZM148.587 68.883L152.052 65.428L155.517 68.883H148.587ZM156.012 68.403L152.448 65.044L156.012 61.685V68.403ZM148.092 68.595L151.656 65.044L148.092 61.685V68.595ZM164.031 61.205L160.566 64.66L157.101 61.205H164.031ZM156.606 68.403L160.17 65.044L156.606 61.685V68.403ZM147.003 61.205L143.538 64.66L140.073 61.205H147.003ZM147.003 68.883L143.538 65.428L140.073 68.883H147.003ZM139.578 68.403L143.142 65.044L139.578 61.685V68.403ZM147.498 68.595L143.934 65.044L147.498 61.685V68.595ZM131.559 61.205L135.024 64.66L138.489 61.205H131.559ZM138.984 68.403L135.42 65.044L138.984 61.685V68.403ZM148.587 52.375L152.052 48.92L155.517 52.375H148.587ZM147.003 52.375L143.538 48.92L140.073 52.375H147.003ZM148.587 60.629L152.052 57.174L155.517 60.629H148.587ZM148.587 52.951L152.052 56.406L155.517 52.951H148.587ZM156.012 53.431L152.448 56.79L156.012 60.149V53.431ZM148.092 53.239L151.656 56.79L148.092 60.149V53.239ZM164.031 60.629L160.566 57.174L157.101 60.629H164.031ZM156.606 53.431L160.17 56.79L156.606 60.149V53.431ZM147.003 60.629L143.538 57.174L140.073 60.629H147.003ZM147.003 52.951L143.538 56.406L140.073 52.951H147.003ZM139.578 53.431L143.142 56.79L139.578 60.149V53.431ZM147.498 53.239L143.934 56.79L147.498 60.149V53.239ZM131.559 60.629L135.024 57.174L138.489 60.629H131.559ZM138.984 53.431L135.42 56.79L138.984 60.149V53.431ZM161.981 52.951H157.101L160.566 56.406L162.702 54.276C162.486 53.824 162.245 53.382 161.981 52.951ZM162.948 54.812L160.963 56.79L164.149 59.793C164.03 58.085 163.631 56.395 162.948 54.812ZM164.141 62.048L160.963 65.043L162.917 66.99C163.604 65.421 164.011 63.745 164.141 62.048ZM162.669 67.524L160.567 65.428L157.102 68.883H161.918C162.193 68.442 162.443 67.988 162.669 67.524Z" fill="#E30A17"/>
</svg>
