<svg width="187" height="118" viewBox="0 0 187 118" fill="none" xmlns="http://www.w3.org/2000/svg">
<path d="M18.1689 69.371H48.1739V77.486H18.1639L18.1689 69.371Z" fill="#E30A17"/>
<path d="M18.1639 45.108H43.7639V52.745H18.1639V45.108Z" fill="#E30A17"/>
<path d="M18.1639 20.845H48.1739V28.959H18.1689L18.1639 20.845Z" fill="#E30A17"/>
<path d="M78.4249 46.224H100.302V57.759C100.302 60.571 99.7399 63.196 98.6159 65.635C97.4919 68.075 95.9359 70.209 93.9469 72.039C91.9579 73.869 89.6229 75.301 86.9429 76.335C84.2619 77.369 81.3939 77.886 78.3389 77.886C75.9179 77.886 73.6829 77.58 71.6379 76.971C69.5909 76.362 67.7599 75.579 66.1469 74.624C64.5319 73.669 63.1339 72.583 61.9529 71.362C60.7709 70.143 59.8049 68.923 59.0559 67.703C58.5369 66.855 58.1179 66.046 57.8019 65.277C57.4839 64.509 57.2099 63.487 56.9799 62.214C56.7489 60.941 56.5909 59.284 56.5039 57.242C56.4179 55.201 56.3739 52.482 56.3739 49.088C56.3739 45.695 56.4169 42.976 56.5039 40.934C56.5909 38.893 56.7489 37.235 56.9799 35.962C57.2099 34.689 57.4839 33.669 57.8019 32.899C58.1179 32.131 58.5369 31.322 59.0559 30.473C59.8039 29.254 60.7709 28.034 61.9529 26.814C63.1339 25.595 64.5319 24.507 66.1469 23.552C67.7599 22.597 69.5909 21.815 71.6379 21.205C73.6839 20.596 75.9179 20.29 78.3389 20.29C81.2789 20.29 83.9599 20.728 86.3809 21.603C88.8019 22.478 90.9489 23.685 92.8229 25.223C94.6959 26.762 96.2379 28.538 97.4489 30.553C98.6599 32.569 99.4939 34.743 99.9569 37.076H90.0989C89.7529 35.962 89.2189 34.916 88.4989 33.934C87.7779 32.953 86.9129 32.092 85.9049 31.349C84.8959 30.607 83.7569 30.01 82.4889 29.559C81.2199 29.109 79.8369 28.883 78.3379 28.883C76.1469 28.883 74.2589 29.295 72.6739 30.116C71.0879 30.939 69.8059 31.906 68.8259 33.02C68.2489 33.71 67.7589 34.4 67.3559 35.088C66.9519 35.778 66.6209 36.679 66.3619 37.793C66.1029 38.907 65.9299 40.339 65.8429 42.089C65.7559 43.839 65.7129 46.174 65.7129 49.09C65.7129 52.007 65.7559 54.34 65.8429 56.091C65.9289 57.841 66.1019 59.273 66.3619 60.387C66.6209 61.501 66.9519 62.39 67.3559 63.052C67.7589 63.716 68.2489 64.418 68.8259 65.16C69.8059 66.274 71.0879 67.242 72.6739 68.064C74.2589 68.887 76.1459 69.297 78.3379 69.297C80.1239 69.297 81.7819 69.006 83.3099 68.422C84.8369 67.839 86.1639 67.017 87.2879 65.956C88.4119 64.896 89.3049 63.623 89.9689 62.138C90.6309 60.654 90.9629 59.035 90.9629 57.285V54.342H78.4249V46.224Z" fill="#E30A17"/>
<path d="M131.077 69.239C129.432 69.106 127.976 68.717 126.714 68.062C125.128 67.24 123.845 66.272 122.866 65.158C122.289 64.416 121.799 63.714 121.396 63.05C120.992 62.388 120.661 61.499 120.401 60.385C120.142 59.271 119.969 57.839 119.882 56.089C119.796 54.339 119.752 52.006 119.752 49.088C119.752 46.172 119.795 43.838 119.882 42.087C119.968 40.337 120.141 38.905 120.401 37.791C120.66 36.677 120.991 35.776 121.396 35.086C121.799 34.397 122.289 33.707 122.866 33.018C123.846 31.904 125.128 30.937 126.714 30.114C127.975 29.46 129.431 29.071 131.077 28.937V20.323C129.152 20.414 127.35 20.706 125.677 21.204C123.63 21.814 121.799 22.596 120.186 23.551C118.571 24.506 117.173 25.593 115.992 26.813C114.81 28.034 113.844 29.253 113.095 30.472C112.576 31.321 112.157 32.13 111.841 32.898C111.524 33.667 111.249 34.688 111.019 35.961C110.788 37.234 110.63 38.892 110.544 40.933C110.457 42.975 110.414 45.694 110.414 49.087C110.414 52.482 110.457 55.2 110.544 57.241C110.63 59.283 110.788 60.94 111.019 62.213C111.249 63.486 111.523 64.507 111.841 65.276C112.157 66.045 112.576 66.855 113.095 67.702C113.843 68.923 114.809 70.142 115.992 71.361C117.173 72.582 118.571 73.668 120.186 74.623C121.799 75.578 123.63 76.361 125.677 76.97C127.35 77.468 129.152 77.76 131.077 77.851V69.239Z" fill="#E30A17"/>
<path fill-rule="evenodd" clip-rule="evenodd" d="M150.218 59.607L153.683 63.062L157.148 59.607H150.218ZM131.49 58.336C131.579 58.336 131.665 58.347 131.747 58.369C131.74 58.331 131.736 58.292 131.736 58.252C131.736 57.9 132.022 57.614 132.374 57.614C132.726 57.614 133.012 57.9 133.012 58.252C133.012 58.435 132.935 58.601 132.811 58.717C132.82 58.724 132.83 58.731 132.839 58.738C132.869 58.733 132.899 58.73 132.931 58.73C133.124 58.73 133.293 58.828 133.393 58.977H133.693C132.2 56.635 131.347 53.926 131.347 51.04C131.347 49.902 131.48 48.791 131.732 47.72L131.368 47.509C131.207 47.588 131.011 47.588 130.845 47.491C130.818 47.475 130.793 47.458 130.77 47.439C130.759 47.441 130.747 47.442 130.736 47.443C130.785 47.606 130.769 47.788 130.677 47.946C130.501 48.251 130.11 48.355 129.806 48.178C129.501 48.002 129.397 47.611 129.574 47.307C129.672 47.137 129.837 47.03 130.017 46.998C129.981 46.903 129.965 46.801 129.972 46.699L129.617 46.493C129.429 46.603 129.189 46.611 128.987 46.495C128.764 46.366 128.651 46.12 128.679 45.88C128.495 46.011 128.243 46.031 128.035 45.91C127.917 45.842 127.832 45.739 127.783 45.623L126.79 44.501L128.258 44.804C128.383 44.788 128.515 44.811 128.633 44.879C128.842 45 128.95 45.228 128.928 45.453C129.122 45.308 129.392 45.284 129.615 45.413C129.817 45.53 129.929 45.742 129.927 45.96L130.282 46.166C130.367 46.109 130.464 46.072 130.564 46.056C130.502 45.885 130.513 45.688 130.611 45.519C130.787 45.214 131.178 45.11 131.482 45.287C131.787 45.463 131.891 45.854 131.714 46.158C131.622 46.317 131.472 46.421 131.307 46.459C131.312 46.469 131.316 46.48 131.32 46.491C131.348 46.502 131.376 46.515 131.403 46.53C131.57 46.626 131.667 46.796 131.679 46.975L131.894 47.1C132.428 45.209 133.338 43.451 134.549 41.893L134.317 41.689C134.144 41.735 133.952 41.697 133.807 41.57C133.784 41.549 133.762 41.527 133.743 41.504C133.731 41.503 133.72 41.503 133.709 41.501C133.725 41.67 133.674 41.846 133.553 41.983C133.321 42.247 132.918 42.273 132.653 42.041C132.389 41.809 132.363 41.406 132.595 41.141C132.725 40.994 132.907 40.92 133.089 40.925C133.072 40.825 133.076 40.722 133.103 40.623L132.794 40.352C132.588 40.423 132.351 40.385 132.176 40.231C131.983 40.061 131.919 39.798 131.994 39.567C131.788 39.66 131.537 39.63 131.356 39.471C131.254 39.381 131.19 39.264 131.165 39.14L130.409 37.846L131.79 38.429C131.916 38.438 132.041 38.486 132.143 38.576C132.324 38.735 132.385 38.98 132.32 39.196C132.539 39.092 132.808 39.121 133.001 39.291C133.176 39.445 133.245 39.675 133.2 39.888L133.509 40.159C133.604 40.12 133.706 40.102 133.807 40.107C133.779 39.927 133.829 39.737 133.958 39.589C134.19 39.325 134.593 39.299 134.858 39.531C135.123 39.763 135.148 40.166 134.916 40.431C134.795 40.569 134.628 40.642 134.458 40.647C134.461 40.658 134.463 40.67 134.465 40.681C134.491 40.697 134.515 40.715 134.539 40.736C134.684 40.863 134.746 41.049 134.723 41.226L134.936 41.413C136.199 39.908 137.75 38.608 139.516 37.576L139.345 37.296C139.166 37.288 138.994 37.195 138.894 37.03C138.878 37.003 138.864 36.976 138.853 36.948C138.842 36.944 138.831 36.94 138.821 36.935C138.786 37.101 138.685 37.254 138.529 37.349C138.228 37.532 137.836 37.437 137.653 37.137C137.47 36.836 137.565 36.444 137.865 36.261C138.033 36.159 138.229 36.143 138.401 36.201C138.414 36.1 138.449 36.003 138.504 35.916L138.29 35.565C138.073 35.572 137.858 35.465 137.736 35.265C137.602 35.045 137.62 34.775 137.76 34.577C137.535 34.604 137.305 34.501 137.18 34.296C137.109 34.18 137.083 34.049 137.096 33.923L136.76 32.463L137.904 33.431C138.022 33.477 138.126 33.56 138.197 33.676C138.322 33.882 138.308 34.134 138.181 34.321C138.421 34.287 138.669 34.395 138.803 34.615C138.924 34.814 138.921 35.054 138.816 35.244L139.03 35.595C139.132 35.586 139.235 35.599 139.33 35.634C139.357 35.454 139.461 35.287 139.628 35.185C139.929 35.002 140.321 35.097 140.504 35.397C140.687 35.698 140.592 36.09 140.292 36.273C140.135 36.368 139.954 36.388 139.79 36.343C139.789 36.355 139.788 36.366 139.787 36.377C139.807 36.4 139.825 36.425 139.841 36.451C139.941 36.615 139.946 36.811 139.871 36.974L140.053 37.272C141.128 36.691 142.277 36.208 143.484 35.835L143.363 35.361C143.236 35.314 143.119 35.224 143.028 35.101C142.957 35.206 142.854 35.284 142.729 35.316C142.428 35.393 142.113 35.176 142.024 34.831C141.935 34.486 142.108 34.144 142.409 34.067C142.585 34.022 142.767 34.078 142.904 34.201C142.933 34.132 142.972 34.069 143.018 34.015L142.908 33.586C142.723 33.538 142.577 33.411 142.532 33.235C142.487 33.06 142.555 32.878 142.693 32.747L142.662 32.625C142.639 32.614 142.618 32.601 142.597 32.586L142.472 32.78L141.944 32.915L142.29 33.492L142.143 33.636L141.528 33.196L141.371 32.582L141.781 32.144L142.365 31.995C142.38 31.923 142.41 31.855 142.451 31.796L142.015 30.092C141.993 30.005 142.126 29.895 142.313 29.847C142.5 29.799 142.67 29.831 142.692 29.918L143.135 31.647C143.186 31.677 143.233 31.716 143.273 31.762L143.856 31.613L144.426 31.8L144.583 32.414L144.255 33.096L144.057 33.041L144.083 32.369L143.555 32.504L143.354 32.395C143.348 32.406 143.342 32.417 143.336 32.428L143.377 32.59C143.547 32.644 143.68 32.766 143.723 32.932C143.765 33.098 143.708 33.269 143.584 33.398L143.712 33.897C143.753 33.919 143.793 33.946 143.83 33.977C143.894 33.795 144.038 33.651 144.229 33.602C144.545 33.521 144.872 33.731 144.959 34.071C145.046 34.411 144.86 34.752 144.544 34.833C144.407 34.868 144.267 34.848 144.146 34.787C144.132 34.916 144.091 35.035 144.027 35.133L144.157 35.641C145.811 35.195 147.565 34.955 149.381 34.955H149.031V34.456C148.92 34.379 148.829 34.262 148.771 34.121C148.676 34.205 148.557 34.255 148.428 34.255C148.117 34.255 147.866 33.966 147.866 33.61C147.866 33.254 148.118 32.965 148.428 32.965C148.61 32.965 148.772 33.064 148.875 33.218C148.92 33.158 148.973 33.107 149.032 33.066V32.623C148.865 32.531 148.755 32.371 148.755 32.19C148.755 32.009 148.865 31.849 149.032 31.757V31.631C149.013 31.614 148.995 31.596 148.978 31.577L148.809 31.734H148.264L148.456 32.378L148.278 32.481L147.791 31.902V31.268L148.297 30.946H148.9C148.933 30.88 148.978 30.822 149.032 30.775V29.016C149.032 28.926 149.189 28.853 149.382 28.853C149.575 28.853 149.732 28.926 149.732 29.016V30.8C149.774 30.842 149.81 30.891 149.837 30.946H150.438L150.944 31.268V31.902L150.457 32.481L150.279 32.378L150.471 31.734H149.926L149.758 31.578C149.75 31.587 149.741 31.597 149.732 31.605V31.772C149.884 31.866 149.982 32.018 149.982 32.189C149.982 32.36 149.884 32.512 149.732 32.606V33.121C149.766 33.153 149.798 33.189 149.827 33.228C149.934 33.068 150.109 32.964 150.307 32.964C150.633 32.964 150.898 33.249 150.898 33.6C150.898 33.951 150.633 34.236 150.307 34.236C150.165 34.236 150.035 34.182 149.933 34.093C149.888 34.214 149.818 34.319 149.732 34.398V34.953H149.382C151.087 34.953 152.736 35.164 154.3 35.559L154.415 35.099C154.326 34.997 154.266 34.862 154.244 34.711C154.131 34.769 154.004 34.789 153.879 34.758C153.578 34.683 153.404 34.341 153.49 33.996C153.576 33.651 153.891 33.432 154.192 33.507C154.369 33.551 154.501 33.687 154.564 33.861C154.623 33.814 154.686 33.777 154.753 33.752L154.861 33.322C154.721 33.192 154.653 33.01 154.697 32.835C154.741 32.659 154.887 32.531 155.071 32.482L155.102 32.36C155.087 32.339 155.074 32.317 155.063 32.295L154.861 32.406L154.332 32.274L154.362 32.946L154.164 33.002L153.833 32.322L153.987 31.707L154.556 31.517L155.141 31.663C155.189 31.607 155.247 31.561 155.311 31.529L155.738 29.823C155.76 29.736 155.93 29.703 156.117 29.75C156.304 29.797 156.438 29.906 156.417 29.993L155.984 31.724C156.015 31.775 156.037 31.831 156.05 31.891L156.633 32.037L157.045 32.472L156.891 33.087L156.278 33.531L156.13 33.388L156.473 32.81L155.944 32.678L155.819 32.486C155.809 32.493 155.798 32.5 155.788 32.506L155.747 32.668C155.871 32.796 155.93 32.967 155.888 33.133C155.846 33.299 155.714 33.422 155.544 33.477L155.419 33.977C155.445 34.016 155.467 34.059 155.485 34.104C155.628 33.975 155.823 33.916 156.015 33.964C156.332 34.043 156.519 34.384 156.434 34.724C156.349 35.064 156.023 35.276 155.706 35.197C155.568 35.163 155.455 35.079 155.378 34.967C155.305 35.074 155.212 35.159 155.109 35.214L154.977 35.742C156.329 36.135 157.611 36.667 158.802 37.319L159.014 36.971C158.939 36.808 158.943 36.613 159.044 36.448C159.06 36.421 159.078 36.397 159.098 36.374C159.097 36.363 159.095 36.351 159.095 36.34C158.931 36.385 158.75 36.365 158.593 36.27C158.292 36.087 158.197 35.694 158.381 35.394C158.564 35.093 158.957 34.998 159.257 35.182C159.425 35.284 159.528 35.451 159.556 35.631C159.652 35.597 159.754 35.583 159.856 35.592L160.07 35.241C159.964 35.051 159.961 34.811 160.083 34.612C160.217 34.392 160.465 34.284 160.705 34.318C160.578 34.131 160.564 33.879 160.689 33.673C160.76 33.557 160.864 33.473 160.982 33.428L162.126 32.46L161.79 33.92C161.803 34.046 161.777 34.177 161.706 34.293C161.581 34.499 161.35 34.601 161.126 34.574C161.266 34.772 161.284 35.042 161.15 35.262C161.029 35.461 160.814 35.568 160.596 35.562L160.382 35.913C160.437 36 160.472 36.097 160.485 36.198C160.658 36.14 160.854 36.155 161.021 36.258C161.322 36.441 161.417 36.834 161.233 37.134C161.05 37.435 160.657 37.53 160.357 37.346C160.2 37.251 160.1 37.098 160.065 36.932C160.054 36.936 160.044 36.941 160.033 36.945C160.022 36.973 160.008 37 159.992 37.027C159.892 37.191 159.72 37.285 159.541 37.293L159.339 37.625C161.062 38.645 162.578 39.922 163.817 41.394L164.011 41.223C163.988 41.045 164.05 40.86 164.195 40.733C164.218 40.712 164.243 40.694 164.269 40.678C164.271 40.667 164.273 40.655 164.276 40.644C164.106 40.638 163.939 40.565 163.818 40.428C163.586 40.164 163.612 39.761 163.876 39.528C164.14 39.295 164.544 39.322 164.776 39.586C164.906 39.733 164.955 39.924 164.927 40.104C165.028 40.1 165.13 40.117 165.225 40.156L165.534 39.885C165.49 39.672 165.558 39.442 165.733 39.288C165.926 39.118 166.196 39.089 166.414 39.193C166.349 38.976 166.41 38.732 166.591 38.573C166.693 38.483 166.818 38.435 166.944 38.426L168.324 37.843L167.568 39.137C167.543 39.261 167.479 39.378 167.377 39.468C167.196 39.627 166.946 39.657 166.739 39.564C166.814 39.794 166.751 40.058 166.557 40.228C166.382 40.382 166.145 40.42 165.939 40.349L165.63 40.62C165.657 40.719 165.661 40.822 165.644 40.922C165.826 40.918 166.009 40.991 166.138 41.138C166.37 41.402 166.345 41.806 166.08 42.038C165.816 42.27 165.412 42.244 165.18 41.98C165.059 41.842 165.008 41.667 165.024 41.498C165.013 41.499 165.001 41.5 164.99 41.501C164.971 41.524 164.95 41.547 164.926 41.567C164.781 41.694 164.589 41.732 164.416 41.686L164.203 41.874C165.417 43.434 166.331 45.193 166.867 47.087L167.064 46.973C167.076 46.794 167.173 46.624 167.34 46.528C167.367 46.512 167.395 46.499 167.423 46.489C167.427 46.478 167.432 46.468 167.436 46.457C167.27 46.418 167.121 46.314 167.029 46.156C166.853 45.851 166.957 45.461 167.261 45.285C167.566 45.109 167.956 45.213 168.132 45.517C168.23 45.687 168.242 45.883 168.179 46.054C168.279 46.07 168.376 46.107 168.461 46.164L168.816 45.958C168.814 45.74 168.926 45.528 169.128 45.411C169.351 45.282 169.621 45.306 169.815 45.451C169.793 45.226 169.901 44.998 170.11 44.877C170.228 44.809 170.359 44.785 170.485 44.802L171.953 44.499L170.96 45.621C170.912 45.738 170.826 45.84 170.708 45.908C170.499 46.029 170.248 46.009 170.064 45.878C170.093 46.119 169.979 46.364 169.756 46.493C169.554 46.61 169.314 46.601 169.126 46.491L168.771 46.697C168.778 46.799 168.762 46.902 168.726 46.996C168.905 47.027 169.07 47.135 169.169 47.305C169.345 47.61 169.241 48 168.937 48.176C168.632 48.352 168.242 48.248 168.066 47.944C167.974 47.785 167.958 47.603 168.007 47.441C167.995 47.44 167.984 47.438 167.973 47.437C167.95 47.456 167.925 47.474 167.898 47.489C167.731 47.585 167.535 47.586 167.375 47.507L167.03 47.707C167.284 48.782 167.418 49.896 167.418 51.038C167.418 53.936 166.558 56.654 165.054 59.003H165.365C165.465 58.854 165.634 58.756 165.827 58.756C165.858 58.756 165.889 58.759 165.919 58.764C165.928 58.757 165.937 58.75 165.947 58.743C165.823 58.627 165.746 58.461 165.746 58.278C165.746 57.926 166.032 57.64 166.384 57.64C166.736 57.64 167.022 57.926 167.022 58.278C167.022 58.307 167.02 58.335 167.016 58.362C167.092 58.344 167.171 58.334 167.252 58.334C167.562 58.334 167.839 58.473 168.025 58.692C168.244 58.723 168.427 58.867 168.512 59.064C168.606 58.858 168.814 58.715 169.055 58.715C169.191 58.715 169.317 58.761 169.417 58.838L170.839 59.311L169.417 59.784C169.317 59.861 169.191 59.907 169.055 59.907C168.814 59.907 168.606 59.764 168.512 59.558C168.445 59.714 168.316 59.837 168.156 59.897C169.964 62.728 167.613 65.586 164.81 66.178C163.123 66.535 160.024 66.672 160.024 66.672L156.61 66.816C156.61 66.816 156.404 67.104 156.116 67.234C155.828 67.364 155.319 67.399 155.319 67.399L153.805 68.975L152.023 69.215L151.975 67.823C151.982 67.035 151.084 67.158 151.084 67.158L150.558 67.145L149.375 67.528L149.373 67.527L149.371 67.528L148.188 67.145L147.662 67.158C147.662 67.158 146.764 67.035 146.771 67.823L146.723 69.215L144.941 68.975L143.427 67.399C143.427 67.399 142.918 67.364 142.63 67.234C142.342 67.104 142.136 66.816 142.136 66.816L138.722 66.672C138.722 66.672 135.623 66.535 133.936 66.178C131.125 65.584 128.762 62.699 130.608 59.87C130.448 59.81 130.318 59.687 130.251 59.531C130.157 59.737 129.95 59.88 129.709 59.88C129.573 59.88 129.447 59.834 129.347 59.757L127.925 59.284L129.347 58.811C129.447 58.734 129.573 58.688 129.709 58.688C129.95 58.688 130.158 58.831 130.251 59.037C130.337 58.837 130.524 58.691 130.747 58.663C130.927 58.463 131.194 58.336 131.49 58.336ZM131.736 60.335C131.657 60.355 131.575 60.365 131.49 60.365C131.392 60.365 131.297 60.351 131.208 60.325C131.092 61.807 131.314 65.219 135.824 65.219C135.824 65.219 138.128 65.288 138.718 64.766C138.718 64.766 138.837 64.573 139.378 64.423C137.263 63.163 135.463 61.514 134.107 59.592H133.392C133.292 59.741 133.123 59.839 132.93 59.839C132.899 59.839 132.868 59.836 132.838 59.831C132.829 59.838 132.82 59.845 132.81 59.852C132.934 59.968 133.011 60.134 133.011 60.317C133.011 60.669 132.725 60.955 132.373 60.955C132.027 60.957 131.745 60.68 131.736 60.335ZM141.209 64.245C141.649 64.242 142.623 64.305 143.26 64.872L144.773 63.446L141.209 60.087V64.245ZM144.595 65.515L146.428 65.529C146.428 65.529 146.511 65.574 146.746 65.403L145.169 63.83L143.728 65.267C144.014 65.356 144.303 65.439 144.595 65.515ZM147.245 65.03C147.404 64.971 147.656 64.919 148.053 64.919L148.294 64.916L148.295 64.891L149.128 64.901V59.895L145.564 63.446L147.245 65.03ZM149.723 64.9L150.438 64.892L150.439 64.917L150.68 64.92C151.153 64.92 151.421 64.994 151.57 65.065L153.286 63.447L149.722 59.896V64.9H149.723ZM152.058 65.451C152.24 65.566 152.306 65.53 152.306 65.53L154.384 65.514C154.634 65.451 154.88 65.383 155.121 65.311C155.125 65.303 155.13 65.296 155.135 65.288L155.11 65.254L153.683 63.832L152.058 65.451ZM155.536 64.82C156.241 64.245 157.302 64.235 157.644 64.248L157.642 64.221V60.088L154.078 63.447L155.536 64.82ZM159.373 64.429C159.901 64.578 160.018 64.767 160.018 64.767C160.608 65.288 162.912 65.22 162.912 65.22C167.422 65.22 167.644 61.807 167.528 60.326C167.438 60.352 167.344 60.366 167.246 60.366C167.167 60.366 167.09 60.357 167.016 60.34C167.016 60.342 167.016 60.345 167.016 60.347C167.016 60.699 166.73 60.985 166.378 60.985C166.026 60.985 165.74 60.699 165.74 60.347C165.74 60.164 165.817 59.998 165.941 59.882C165.932 59.875 165.922 59.868 165.913 59.861C165.883 59.866 165.853 59.869 165.821 59.869C165.628 59.869 165.459 59.771 165.359 59.622L164.632 59.62C163.277 61.533 161.481 63.174 159.373 64.429ZM161.082 61.95L161.107 61.967C161.892 61.247 162.579 60.454 163.168 59.607H158.733L161.082 61.95ZM160.65 62.369L160.618 62.331L158.238 60.088V63.91L158.24 64.016C159.119 63.534 159.923 62.981 160.65 62.369ZM138.19 62.372L138.183 62.378C138.937 62.967 139.751 63.498 140.615 63.962V60.088L138.19 62.372ZM137.718 62L137.727 61.993L140.121 59.606H135.438L135.411 59.608C136.085 60.477 136.859 61.278 137.718 62ZM135.013 59.031L134.983 59.032C134.734 58.678 134.5 58.314 134.284 57.941L134.304 57.92L136.654 55.576L140.119 59.031H135.013ZM134.004 57.433L134.029 57.415L136.259 55.193L132.513 51.849C132.715 53.888 133.023 55.574 134.004 57.433ZM153.287 38.685L149.723 42.236C149.723 40.176 149.829 37.862 149.725 35.913C149.946 35.916 150.16 35.921 150.367 35.928L150.417 35.978L153.287 38.685ZM151.421 36.047L151.354 35.986C152.839 36.106 154 36.368 155.242 36.751L155.15 36.839L153.683 38.302L151.422 36.048L151.421 36.047ZM149.129 35.912V35.94V42.236L145.565 38.685L148.43 35.985L148.457 35.96H148.449L148.468 35.935C148.692 35.923 148.912 35.915 149.129 35.912ZM147.408 36.069L147.45 36.019C146.205 36.156 144.904 36.422 143.668 36.801L143.679 36.815L145.169 38.301L147.408 36.069ZM143.047 37.059L143.025 37.038H143.026L143.006 37.018C142.377 37.236 141.772 37.485 141.207 37.762L141.208 37.811V37.887V42.045L144.772 38.686L143.047 37.059ZM140.615 38.143L140.614 38.065C139.732 38.539 138.901 39.083 138.133 39.687L138.159 39.73L140.614 42.044V38.143H140.615ZM137.697 40.109L137.665 40.071C136.796 40.808 136.015 41.627 135.338 42.513L135.396 42.524H140.12L137.697 40.109ZM134.917 43.092L134.977 43.1H140.121L136.656 46.555L134.286 44.192L134.285 44.195L134.244 44.158C134.452 43.794 134.677 43.438 134.917 43.092ZM134.01 44.699L133.968 44.663C132.992 46.538 132.69 48.238 132.505 50.29L136.258 46.939L134.01 44.699ZM160.59 39.827L160.708 39.708C159.965 39.075 159.141 38.504 158.236 38.008L158.237 38.169V38.182V42.045L160.59 39.827ZM161.161 40.11L161.11 40.153L158.732 42.524H163.238C162.647 41.658 161.955 40.847 161.161 40.11ZM157.643 37.858V37.7C157.086 37.426 156.501 37.179 155.887 36.963L155.8 37.063L154.079 38.685L157.643 42.044V37.867V37.858ZM148.634 59.607L145.169 63.062L141.704 59.607H148.634ZM150.218 51.354L153.683 54.809L157.148 51.354H150.218ZM150.218 59.031L153.683 55.576L157.148 59.031H150.218ZM157.643 58.552L154.079 55.193L157.643 51.834V58.552ZM149.723 58.744L153.287 55.193L149.723 51.834V58.744ZM165.662 51.354L162.197 54.809L158.732 51.354H165.662ZM158.237 58.552L161.801 55.193L158.237 51.834V58.552ZM148.634 51.354L145.169 54.809L141.704 51.354H148.634ZM148.634 59.031L145.169 55.576L141.704 59.031H148.634ZM141.209 58.552L144.773 55.193L141.209 51.834V58.552ZM149.129 58.744L145.565 55.193L149.129 51.834V58.744ZM133.19 51.354L136.655 54.809L140.12 51.354H133.19ZM140.615 58.552L137.051 55.193L140.615 51.834V58.552ZM150.218 42.524L153.683 39.069L157.148 42.524H150.218ZM148.634 42.524L145.169 39.069L141.704 42.524H148.634ZM150.218 50.778L153.683 47.323L157.148 50.778H150.218ZM150.218 43.1L153.683 46.555L157.148 43.1H150.218ZM157.643 43.58L154.079 46.939L157.643 50.298V43.58ZM149.723 43.388L153.287 46.939L149.723 50.298V43.388ZM165.662 50.778L162.197 47.323L158.732 50.778H165.662ZM158.237 43.58L161.801 46.939L158.237 50.298V43.58ZM148.634 50.778L145.169 47.323L141.704 50.778H148.634ZM148.634 43.1L145.169 46.555L141.704 43.1H148.634ZM141.209 43.58L144.773 46.939L141.209 50.298V43.58ZM149.129 43.388L145.565 46.939L149.129 50.298V43.388ZM133.19 50.778L136.655 47.323L140.12 50.778H133.19ZM140.615 43.58L137.051 46.939L140.615 50.298V43.58ZM163.612 43.1H158.732L162.197 46.555L164.333 44.425C164.117 43.973 163.876 43.53 163.612 43.1ZM164.579 44.961L162.594 46.939L165.78 49.942C165.661 48.233 165.262 46.544 164.579 44.961ZM165.772 52.197L162.594 55.192L164.548 57.139C165.235 55.57 165.642 53.894 165.772 52.197ZM164.3 57.673L162.198 55.577L158.733 59.032H163.549C163.824 58.591 164.074 58.137 164.3 57.673Z" fill="#E30A17"/>
<path d="M18.1709 89.038L25.8539 89.032L25.8549 90.754L19.9959 90.758L19.9989 94.186L24.9969 94.182L24.9979 95.803L19.9999 95.807L20.0029 99.336L25.8619 99.332L25.8629 101.054L18.1799 101.06L18.1709 89.038Z" fill="#E30A17"/>
<path d="M31.4629 94.432L35.7349 94.429L35.7369 96.877C35.7379 97.474 35.6279 98.031 35.4089 98.549C35.1899 99.067 34.8859 99.52 34.4979 99.909C34.1099 100.298 33.6539 100.602 33.1309 100.822C32.6079 101.042 32.0479 101.152 31.4509 101.153C30.9779 101.153 30.5419 101.089 30.1419 100.96C29.7419 100.831 29.3849 100.665 29.0699 100.463C28.7549 100.261 28.4809 100.03 28.2509 99.771C28.0199 99.512 27.8309 99.254 27.6849 98.995C27.5839 98.815 27.5019 98.643 27.4399 98.48C27.3779 98.317 27.3239 98.1 27.2789 97.83C27.2339 97.56 27.2029 97.208 27.1849 96.775C27.1679 96.342 27.1589 95.765 27.1589 95.044C27.1579 94.324 27.1659 93.747 27.1829 93.313C27.1999 92.88 27.2299 92.528 27.2749 92.258C27.3199 91.988 27.3729 91.771 27.4349 91.608C27.4969 91.445 27.5779 91.273 27.6789 91.093C27.8249 90.834 28.0139 90.575 28.2439 90.316C28.4739 90.057 28.7469 89.826 29.0619 89.623C29.3769 89.42 29.7339 89.254 30.1339 89.124C30.5329 88.994 30.9699 88.929 31.4429 88.929C32.0169 88.928 32.5399 89.021 33.0139 89.206C33.4869 89.392 33.9059 89.648 34.2719 89.974C34.6379 90.301 34.9399 90.677 35.1759 91.105C35.4129 91.532 35.5759 91.994 35.6669 92.489L33.7419 92.49C33.6739 92.254 33.5699 92.032 33.4289 91.823C33.2879 91.615 33.1189 91.432 32.9219 91.275C32.7249 91.118 32.5019 90.991 32.2549 90.895C32.0069 90.8 31.7369 90.752 31.4439 90.752C31.0159 90.752 30.6479 90.84 30.3379 91.014C30.0289 91.189 29.7779 91.394 29.5869 91.631C29.4739 91.778 29.3789 91.924 29.2999 92.07C29.2209 92.216 29.1569 92.408 29.1059 92.644C29.0559 92.881 29.0219 93.185 29.0049 93.556C28.9879 93.927 28.9799 94.423 28.9809 95.042C28.9819 95.661 28.9899 96.156 29.0069 96.528C29.0239 96.899 29.0579 97.203 29.1089 97.44C29.1599 97.676 29.2249 97.865 29.3039 98.005C29.3829 98.146 29.4779 98.295 29.5909 98.452C29.7819 98.688 30.0329 98.894 30.3429 99.068C30.6519 99.242 31.0209 99.329 31.4489 99.329C31.7979 99.329 32.1209 99.267 32.4199 99.142C32.7179 99.018 32.9769 98.843 33.1959 98.618C33.4159 98.393 33.5899 98.122 33.7189 97.807C33.8479 97.492 33.9129 97.148 33.9119 96.777L33.9109 96.152L31.4629 96.154V94.432Z" fill="#E30A17"/>
<path d="M37.4578 95.035C37.4568 94.315 37.4648 93.738 37.4818 93.304C37.4988 92.871 37.5288 92.519 37.5738 92.249C37.6188 91.979 37.6718 91.762 37.7338 91.599C37.7958 91.436 37.8768 91.264 37.9778 91.084C38.1238 90.825 38.3128 90.566 38.5428 90.307C38.7728 90.048 39.0458 89.817 39.3608 89.614C39.6758 89.411 40.0328 89.245 40.4328 89.115C40.8318 88.985 41.2688 88.92 41.7418 88.92C42.2148 88.92 42.6508 88.984 43.0508 89.113C43.4498 89.242 43.8078 89.408 44.1228 89.61C44.4378 89.812 44.7108 90.043 44.9418 90.302C45.1728 90.561 45.3618 90.819 45.5078 91.078C45.6088 91.258 45.6908 91.43 45.7528 91.593C45.8148 91.756 45.8688 91.973 45.9138 92.243C45.9588 92.513 45.9908 92.865 46.0078 93.298C46.0248 93.732 46.0338 94.308 46.0348 95.029C46.0358 95.749 46.0268 96.327 46.0108 96.76C45.9938 97.194 45.9638 97.545 45.9188 97.815C45.8738 98.085 45.8208 98.302 45.7588 98.465C45.6968 98.629 45.6158 98.8 45.5148 98.98C45.3688 99.239 45.1798 99.498 44.9498 99.757C44.7188 100.016 44.4458 100.247 44.1318 100.45C43.8168 100.653 43.4588 100.819 43.0598 100.949C42.6598 101.079 42.2238 101.144 41.7518 101.144C41.2788 101.144 40.8428 101.08 40.4428 100.951C40.0428 100.822 39.6858 100.656 39.3708 100.454C39.0558 100.252 38.7818 100.021 38.5518 99.762C38.3208 99.503 38.1318 99.245 37.9858 98.986C37.8848 98.806 37.8028 98.634 37.7408 98.471C37.6788 98.308 37.6248 98.091 37.5798 97.821C37.5348 97.551 37.5038 97.199 37.4858 96.766C37.4668 96.333 37.4578 95.756 37.4578 95.035ZM39.2808 95.034C39.2818 95.653 39.2898 96.148 39.3068 96.52C39.3238 96.892 39.3578 97.195 39.4088 97.432C39.4598 97.668 39.5248 97.857 39.6038 97.997C39.6828 98.138 39.7778 98.287 39.8908 98.444C40.0818 98.68 40.3328 98.886 40.6428 99.06C40.9518 99.234 41.3208 99.321 41.7488 99.321C42.1758 99.321 42.5448 99.233 42.8548 99.059C43.1638 98.884 43.4148 98.678 43.6058 98.442C43.7288 98.284 43.8278 98.135 43.9008 97.994C43.9738 97.853 44.0358 97.664 44.0858 97.428C44.1358 97.192 44.1698 96.888 44.1858 96.516C44.2028 96.145 44.2108 95.649 44.2098 95.03C44.2088 94.411 44.2008 93.916 44.1838 93.544C44.1668 93.173 44.1328 92.869 44.0818 92.632C44.0308 92.396 43.9688 92.205 43.8958 92.058C43.8228 91.912 43.7238 91.765 43.5998 91.619C43.4078 91.382 43.1578 91.177 42.8478 91.003C42.5378 90.829 42.1688 90.742 41.7418 90.742C41.3138 90.742 40.9458 90.83 40.6358 91.004C40.3268 91.179 40.0758 91.384 39.8848 91.621C39.7718 91.768 39.6768 91.914 39.5978 92.06C39.5188 92.206 39.4548 92.398 39.4038 92.634C39.3538 92.871 39.3198 93.174 39.3028 93.546C39.2888 93.92 39.2798 94.415 39.2808 95.034Z" fill="#E30A17"/>
<path d="M56.1149 94.414L60.3869 94.411L60.3889 96.859C60.3899 97.456 60.2799 98.013 60.0609 98.531C59.8419 99.049 59.5379 99.502 59.1499 99.891C58.7619 100.28 58.3059 100.584 57.7829 100.804C57.2599 101.024 56.6999 101.134 56.1029 101.135C55.6299 101.136 55.1939 101.071 54.7939 100.942C54.3939 100.813 54.0369 100.647 53.7219 100.445C53.4069 100.243 53.1329 100.012 52.9029 99.754C52.6719 99.495 52.4829 99.237 52.3369 98.977C52.2359 98.797 52.1539 98.626 52.0919 98.462C52.0299 98.299 51.9759 98.082 51.9309 97.812C51.8859 97.542 51.8549 97.191 51.8369 96.757C51.8199 96.324 51.8109 95.747 51.8109 95.026C51.8099 94.306 51.8179 93.729 51.8349 93.295C51.8519 92.862 51.8819 92.51 51.9269 92.239C51.9719 91.969 52.0249 91.752 52.0869 91.589C52.1489 91.426 52.2299 91.254 52.3309 91.074C52.4769 90.815 52.6659 90.556 52.8959 90.297C53.1259 90.038 53.3989 89.807 53.7139 89.604C54.0289 89.401 54.3859 89.235 54.7859 89.105C55.1849 88.975 55.6219 88.91 56.0949 88.91C56.6689 88.91 57.1919 89.002 57.6659 89.188C58.1389 89.373 58.5579 89.629 58.9239 89.955C59.2899 90.282 59.5919 90.658 59.8279 91.086C60.0649 91.514 60.2279 91.975 60.3189 92.47L58.3939 92.472C58.3259 92.236 58.2219 92.014 58.0809 91.805C57.9399 91.597 57.7709 91.414 57.5739 91.257C57.3769 91.1 57.1539 90.973 56.9069 90.877C56.6589 90.782 56.3889 90.734 56.0959 90.734C55.6679 90.735 55.2999 90.822 54.9899 90.996C54.6809 91.171 54.4299 91.376 54.2389 91.613C54.1259 91.759 54.0309 91.906 53.9519 92.052C53.8729 92.199 53.8089 92.39 53.7579 92.626C53.7079 92.863 53.6739 93.167 53.6569 93.538C53.6399 93.909 53.6319 94.405 53.6329 95.024C53.6339 95.643 53.6419 96.138 53.6589 96.51C53.6759 96.881 53.7099 97.185 53.7609 97.422C53.8119 97.658 53.8769 97.847 53.9559 97.987C54.0349 98.128 54.1299 98.277 54.2429 98.435C54.4339 98.671 54.6849 98.876 54.9949 99.051C55.3039 99.226 55.6729 99.312 56.1009 99.312C56.4499 99.312 56.7729 99.25 57.0719 99.125C57.3699 99 57.6289 98.826 57.8489 98.6C58.0689 98.375 58.2429 98.104 58.3719 97.789C58.5009 97.474 58.5659 97.13 58.5649 96.759V96.134L56.1169 96.136L56.1149 94.414Z" fill="#E30A17"/>
<path d="M63.6639 97.397C63.6639 98.106 63.8559 98.635 64.2389 98.984C64.6219 99.333 65.1119 99.507 65.7089 99.506C66.0359 99.506 66.3649 99.432 66.6969 99.286C67.0289 99.14 67.3239 98.937 67.5829 98.678L68.8329 99.741C68.4049 100.237 67.9269 100.592 67.3979 100.806C66.8689 101.02 66.3169 101.128 65.7439 101.128C65.3049 101.129 64.8599 101.067 64.4099 100.943C63.9599 100.819 63.5509 100.595 63.1849 100.269C62.8189 99.943 62.5199 99.498 62.2889 98.936C62.0579 98.373 61.9419 97.653 61.9409 96.775C61.9399 95.942 62.0469 95.244 62.2599 94.681C62.4729 94.119 62.7489 93.665 63.0859 93.321C63.4229 92.978 63.7999 92.733 64.2169 92.586C64.6329 92.439 65.0499 92.366 65.4659 92.365C65.9389 92.365 66.3889 92.449 66.8169 92.617C67.2449 92.786 67.6189 93.028 67.9399 93.342C68.2609 93.657 68.5169 94.037 68.7089 94.481C68.9009 94.926 68.9969 95.424 68.9969 95.975L68.9999 97.393L63.6639 97.397ZM67.2769 95.976C67.2539 95.323 67.0729 94.828 66.7349 94.49C66.3969 94.153 65.9749 93.984 65.4679 93.985C64.9609 93.986 64.5389 94.155 64.2019 94.492C63.8639 94.83 63.6849 95.325 63.6629 95.978L67.2769 95.976Z" fill="#E30A17"/>
<path d="M70.8029 92.462L72.5249 92.461V93.373H72.5589C72.8289 93.035 73.1519 92.782 73.5289 92.612C73.9059 92.443 74.3249 92.358 74.7869 92.358C75.1249 92.358 75.4619 92.422 75.7999 92.551C76.1379 92.68 76.4419 92.869 76.7119 93.116C76.9829 93.364 77.2049 93.673 77.3799 94.044C77.5549 94.415 77.6419 94.843 77.6429 95.327L77.6469 101.017L75.9249 101.018L75.9209 95.919C75.9209 95.334 75.7599 94.881 75.4389 94.56C75.1179 94.24 74.7149 94.08 74.2309 94.08C73.7359 94.08 73.3279 94.241 73.0069 94.562C72.6869 94.883 72.5259 95.337 72.5269 95.922L72.5309 101.021L70.8089 101.022L70.8029 92.462Z" fill="#E30A17"/>
<path d="M81.1739 97.384C81.1749 98.093 81.3659 98.622 81.7489 98.971C82.1319 99.32 82.6219 99.494 83.2189 99.493C83.5459 99.493 83.8749 99.42 84.2069 99.273C84.5389 99.127 84.8339 98.924 85.0929 98.664L86.3429 99.727C85.9149 100.223 85.4369 100.578 84.9089 100.792C84.3799 101.006 83.8289 101.113 83.2549 101.114C82.8159 101.115 82.3709 101.053 81.9209 100.929C81.4709 100.806 81.0619 100.581 80.6959 100.255C80.3299 99.929 80.0309 99.484 79.7999 98.922C79.5689 98.359 79.4529 97.639 79.4519 96.761C79.4509 95.928 79.5579 95.23 79.7709 94.667C79.9839 94.105 80.2599 93.651 80.5969 93.307C80.9339 92.964 81.3109 92.719 81.7279 92.572C82.1439 92.426 82.5609 92.352 82.9769 92.351C83.4499 92.351 83.8999 92.435 84.3279 92.603C84.7559 92.772 85.1299 93.014 85.4509 93.328C85.7719 93.643 86.0279 94.023 86.2199 94.467C86.4119 94.912 86.5079 95.41 86.5079 95.961L86.5089 97.379L81.1739 97.384ZM84.7859 95.963C84.7629 95.31 84.5819 94.815 84.2439 94.477C83.9059 94.14 83.4839 93.971 82.9769 93.972C82.4699 93.973 82.0479 94.142 81.7109 94.479C81.3739 94.816 81.1939 95.312 81.1719 95.965L84.7859 95.963Z" fill="#E30A17"/>
<path d="M88.3099 88.987L90.0319 88.986L90.0389 98.796C90.0389 99.19 90.2529 99.387 90.6809 99.386L91.2719 99.385L91.2729 101.006L90.5129 101.007C90.1979 101.007 89.9079 100.971 89.6429 100.898C89.3789 100.825 89.1479 100.707 88.9509 100.544C88.7539 100.381 88.5989 100.167 88.4859 99.903C88.3729 99.639 88.3169 99.315 88.3159 98.932L88.3099 88.987Z" fill="#E30A17"/>
<path d="M96.8699 88.981L98.5919 88.98L102.042 96.812L105.413 88.975L107.135 88.974L107.144 100.996L105.32 100.997L105.315 93.5H105.281L102.769 99.276L101.249 99.277L98.7289 93.504H98.6949L98.6999 101.001L96.8759 101.003L96.8699 88.981Z" fill="#E30A17"/>
<path d="M109.52 92.433L111.242 92.432L111.246 97.531C111.246 98.116 111.407 98.57 111.728 98.89C112.049 99.21 112.457 99.37 112.953 99.37C113.437 99.37 113.839 99.209 114.16 98.888C114.481 98.567 114.641 98.114 114.64 97.528L114.636 92.429L116.358 92.428L116.364 100.989L114.642 100.99V100.078H114.608C114.338 100.416 114.014 100.669 113.638 100.839C113.261 101.008 112.847 101.093 112.397 101.093C112.059 101.093 111.718 101.029 111.375 100.9C111.031 100.771 110.725 100.583 110.454 100.335C110.184 100.088 109.961 99.778 109.786 99.407C109.611 99.036 109.524 98.608 109.523 98.124L109.52 92.433ZM110.446 89.275L112.269 89.274L112.271 91.097L110.448 91.098L110.446 89.275ZM113.418 89.273L115.241 89.271L115.243 91.094L113.42 91.096L113.418 89.273Z" fill="#E30A17"/>
<path d="M123.709 100.089C123.439 100.382 123.112 100.621 122.73 100.807C122.347 100.993 121.937 101.086 121.498 101.086C120.969 101.087 120.516 100.983 120.138 100.775C119.761 100.567 119.448 100.3 119.2 99.9739C119.087 99.8169 118.992 99.6589 118.913 99.5019C118.834 99.3449 118.769 99.1449 118.718 98.9019C118.668 98.6599 118.633 98.3649 118.616 98.0159C118.599 97.6669 118.59 97.2279 118.59 96.6989C118.589 96.1699 118.598 95.7339 118.614 95.3899C118.631 95.0469 118.664 94.7539 118.715 94.5119C118.765 94.2699 118.83 94.0679 118.909 93.9039C118.987 93.7409 119.083 93.5859 119.196 93.4389C119.443 93.1119 119.756 92.8449 120.133 92.6359C120.51 92.4279 120.963 92.3229 121.492 92.3229C121.931 92.3229 122.328 92.4149 122.683 92.6009C123.038 92.7869 123.378 93.0309 123.705 93.3349L123.702 88.9619L125.424 88.9609L125.433 100.983L123.711 100.984L123.709 100.089ZM122.015 94.0449C121.61 94.0449 121.292 94.1219 121.061 94.2739C120.83 94.4259 120.662 94.6259 120.555 94.8739C120.448 95.1219 120.381 95.4059 120.353 95.7269C120.325 96.0479 120.311 96.3719 120.312 96.6979C120.312 97.0359 120.327 97.3619 120.355 97.6769C120.383 97.9919 120.451 98.2759 120.558 98.5289C120.665 98.7819 120.834 98.9849 121.065 99.1369C121.296 99.2889 121.614 99.3649 122.019 99.3639C122.424 99.3629 122.739 99.2819 122.964 99.1179C123.189 98.9549 123.355 98.7459 123.462 98.4929C123.569 98.2399 123.636 97.9559 123.664 97.6399C123.692 97.3249 123.706 97.0099 123.705 96.6939C123.705 96.3899 123.69 96.0809 123.662 95.7649C123.634 95.4499 123.566 95.1659 123.459 94.9119C123.352 94.6589 123.185 94.4509 122.96 94.2879C122.736 94.1269 122.421 94.0449 122.015 94.0449Z" fill="#E30A17"/>
<path d="M127.35 92.42L129.072 92.419L129.076 97.518C129.077 98.103 129.237 98.557 129.558 98.877C129.879 99.197 130.287 99.358 130.783 99.357C131.267 99.357 131.669 99.196 131.99 98.875C132.311 98.554 132.471 98.101 132.47 97.515L132.466 92.416L134.188 92.415L134.194 100.976L132.472 100.977L132.471 100.065H132.437C132.167 100.403 131.843 100.656 131.467 100.826C131.09 100.995 130.676 101.08 130.226 101.08C129.888 101.08 129.547 101.016 129.204 100.887C128.86 100.758 128.553 100.57 128.283 100.322C128.013 100.075 127.79 99.765 127.615 99.394C127.44 99.023 127.353 98.595 127.352 98.111L127.35 92.42ZM128.276 89.262L130.099 89.261L130.101 91.084L128.278 91.085L128.276 89.262ZM131.248 89.26L133.071 89.259L133.073 91.082L131.25 91.083L131.248 89.26Z" fill="#E30A17"/>
<path d="M136.417 92.4139L138.139 92.4129L138.14 93.3249H138.174C138.444 92.9869 138.767 92.7339 139.144 92.5639C139.521 92.3949 139.94 92.3099 140.402 92.3099C140.751 92.3099 141.072 92.3689 141.365 92.4869C141.658 92.6049 141.934 92.7649 142.193 92.9679L140.944 94.4549C140.742 94.2979 140.558 94.1879 140.395 94.1259C140.232 94.0639 140.038 94.0329 139.813 94.0339C139.599 94.0339 139.394 94.0679 139.197 94.1359C139 94.2029 138.823 94.3109 138.665 94.4569C138.508 94.6039 138.381 94.7889 138.286 95.0139C138.19 95.2399 138.143 95.5099 138.143 95.8249L138.147 100.975L136.425 100.976L136.417 92.4139Z" fill="#E30A17"/>
<path d="M142.982 88.947L144.704 88.946L144.711 98.756C144.711 99.15 144.925 99.347 145.353 99.346L145.944 99.345L145.945 100.966L145.185 100.967C144.87 100.967 144.58 100.931 144.315 100.858C144.051 100.785 143.82 100.667 143.623 100.504C143.426 100.341 143.271 100.127 143.158 99.863C143.045 99.599 142.989 99.275 142.988 98.892L142.982 88.947Z" fill="#E30A17"/>
<path d="M147.342 92.406L149.064 92.405L149.068 97.504C149.069 98.089 149.229 98.543 149.55 98.863C149.871 99.183 150.279 99.344 150.775 99.343C151.259 99.343 151.661 99.182 151.982 98.861C152.303 98.54 152.463 98.087 152.462 97.501L152.458 92.402L154.18 92.401L154.186 100.962L152.464 100.963L152.463 100.051H152.429C152.159 100.389 151.835 100.642 151.459 100.812C151.082 100.981 150.668 101.066 150.218 101.066C149.88 101.066 149.539 101.002 149.196 100.873C148.852 100.744 148.545 100.556 148.275 100.308C148.005 100.061 147.782 99.751 147.607 99.38C147.432 99.009 147.345 98.581 147.344 98.097L147.342 92.406ZM148.268 89.248L150.091 89.247L150.093 91.07L148.27 91.071L148.268 89.248ZM151.24 89.246L153.063 89.244L153.065 91.067L151.242 91.069L151.24 89.246Z" fill="#E30A17"/>
<path d="M161.226 100.061C160.956 100.354 160.63 100.593 160.247 100.779C159.864 100.965 159.454 101.058 159.015 101.058C158.452 101.058 157.982 100.946 157.605 100.721C157.228 100.496 156.943 100.26 156.752 100.012C156.628 99.855 156.526 99.703 156.448 99.556C156.369 99.41 156.304 99.221 156.253 98.99C156.202 98.759 156.165 98.464 156.142 98.103C156.119 97.743 156.108 97.27 156.107 96.685C156.106 96.088 156.117 95.61 156.14 95.25C156.162 94.89 156.199 94.594 156.249 94.363C156.3 94.133 156.364 93.944 156.443 93.798C156.521 93.652 156.623 93.5 156.746 93.342C156.937 93.094 157.221 92.858 157.598 92.632C157.975 92.407 158.445 92.294 159.008 92.293C159.447 92.293 159.844 92.377 160.199 92.545C160.554 92.714 160.894 92.967 161.221 93.304L161.22 92.392L162.942 92.391L162.948 100.749C162.949 101.391 162.848 101.948 162.645 102.421C162.443 102.894 162.17 103.285 161.827 103.595C161.484 103.905 161.09 104.136 160.646 104.288C160.201 104.44 159.732 104.517 159.236 104.517C158.684 104.517 158.147 104.385 157.623 104.121C157.099 103.857 156.646 103.511 156.263 103.084L157.596 102.019C157.81 102.233 158.061 102.416 158.348 102.567C158.635 102.719 158.942 102.795 159.269 102.794C159.843 102.794 160.313 102.636 160.678 102.32C161.043 102.005 161.226 101.543 161.226 100.935V100.061ZM157.201 89.916L162.064 89.912L162.065 91.026L157.202 91.03L157.201 89.916ZM157.83 96.687C157.83 97.025 157.833 97.301 157.839 97.514C157.845 97.728 157.859 97.905 157.882 98.046C157.904 98.187 157.939 98.302 157.983 98.392C158.028 98.482 158.09 98.578 158.169 98.679C158.293 98.836 158.465 98.986 158.684 99.126C158.904 99.267 159.188 99.337 159.537 99.336C159.875 99.336 160.153 99.265 160.373 99.124C160.593 98.983 160.764 98.834 160.888 98.676C160.966 98.575 161.028 98.479 161.073 98.389C161.118 98.299 161.151 98.184 161.174 98.043C161.197 97.902 161.21 97.725 161.216 97.511C161.222 97.298 161.224 97.021 161.224 96.684C161.224 96.335 161.221 96.054 161.215 95.84C161.209 95.626 161.195 95.449 161.172 95.308C161.149 95.167 161.115 95.052 161.071 94.962C161.026 94.872 160.964 94.776 160.885 94.675C160.761 94.518 160.589 94.369 160.37 94.228C160.15 94.088 159.872 94.017 159.534 94.018C159.185 94.018 158.901 94.089 158.682 94.23C158.462 94.371 158.291 94.52 158.167 94.678C158.088 94.779 158.026 94.875 157.981 94.965C157.936 95.055 157.902 95.17 157.88 95.311C157.857 95.452 157.844 95.629 157.838 95.843C157.832 96.057 157.83 96.338 157.83 96.687Z" fill="#E30A17"/>
<path d="M165.172 92.393L166.894 92.392L166.898 97.491C166.899 98.076 167.059 98.53 167.38 98.85C167.701 99.17 168.109 99.331 168.605 99.33C169.089 99.33 169.491 99.169 169.812 98.848C170.133 98.527 170.293 98.074 170.292 97.488L170.288 92.389L172.01 92.388L172.016 100.949L170.294 100.95L170.293 100.038H170.259C169.989 100.376 169.665 100.629 169.288 100.799C168.911 100.968 168.497 101.053 168.047 101.053C167.709 101.053 167.368 100.989 167.025 100.86C166.681 100.731 166.374 100.543 166.104 100.295C165.834 100.048 165.611 99.738 165.436 99.367C165.261 98.996 165.174 98.568 165.173 98.084L165.172 92.393ZM166.098 89.235L167.921 89.233L167.923 91.056L166.1 91.058L166.098 89.235ZM169.07 89.232L170.893 89.231L170.895 91.054L169.072 91.055L169.07 89.232Z" fill="#E30A17"/>
</svg>
